<!-- SpeedSize.com --><svg width="150" height="150" xmlns="http://www.w3.org/2000/svg"><g fill="none" fill-rule="evenodd"><path d="M0 0h150v150H0z"/><path d="M115.071 10.714c1.184 0 2.143.96 2.143 2.143v124.179c0 1.183-.96 2.143-2.143 2.143H34.714a2.143 2.143 0 01-2.143-2.143V12.964c0-1.183.96-2.143 2.143-2.143h80.357m0-8.571H34.714C28.797 2.25 24 7.047 24 12.964v124.072c0 5.917 4.797 10.714 10.714 10.714h80.357c5.918 0 10.715-4.797 10.715-10.714V12.964c0-5.917-4.797-10.714-10.715-10.714z" fill="#414040" fill-rule="nonzero"/><path d="M88.286 130.018H61.5a4.286 4.286 0 010-8.572h26.786a4.286 4.286 0 110 8.572z" fill="#414040" fill-rule="nonzero"/><path d="M0 0h150v150H0z"/></g></svg>