<!-- SpeedSize.com --><svg width="150" height="152" xmlns="http://www.w3.org/2000/svg"><g fill="none" fill-rule="evenodd"><path d="M0 1h150v150H0z"/><g fill="#414040" fill-rule="nonzero" stroke="#414040" stroke-width="2.679"><path d="M129.629 85.15c0-13.848-3.916-27.182-6.53-34.002a9.458 9.458 0 00-1.233-2.26 2.492 2.492 0 00-.118-.627l-7.318-24a2.89 2.89 0 00-.471-.74l-4.96-19.923a2.683 2.683 0 00-3.15-1.837A2.687 2.687 0 00104 4.9l4.441 17.502h-9.637V4.107a2.626 2.626 0 00-2.615-2.464 2.626 2.626 0 00-2.614 2.464v18.29h-8.754V4.106a2.626 2.626 0 00-2.614-2.464 2.627 2.627 0 00-2.62 2.464v18.29h-8.716V4.106a2.63 2.63 0 00-2.614-2.464 2.627 2.627 0 00-2.62 2.464v18.29h-8.635V4.106a2.633 2.633 0 00-2.615-2.464 2.627 2.627 0 00-2.62 2.464v18.29h-9.696L46.261 4.9a2.584 2.584 0 00-1.849-3.15 2.584 2.584 0 00-3.15 1.848l-5.12 20.604h0l-6.805 23.335a9.104 9.104 0 00-2.416 3.59c-2.351 6.535-6.535 20.132-6.535 34.002 0 1.312-.482 34.532 16.746 51.75.51.535 16.457 13.601 38.143 13.601 21.696 0 37.645-13.071 37.912-13.859 16.972-16.971 16.447-49.623 16.447-51.471h-.005zm-89.16-57.509h69l5.23 17.218L97.19 40.68a98.302 98.302 0 00-44.432 0L35.24 44.86l5.23-17.22h0zm69.82 105.08c-.257.258-15.171 12.547-34.998 12.547-19.832 0-34.79-12.268-34.79-12.268h0C25.08 117.588 25.61 85.696 25.61 85.171c0-13.082 3.921-25.89 6.52-32.421a4.15 4.15 0 011.72-2.079c.401-.16.83-.332 1.162-.503l19.339-4.436a95.077 95.077 0 0142.091 0l19.329 4.43h0a4.11 4.11 0 012.882 2.62c2.346 6.536 6.268 19.088 6.268 32.416.01.215.567 32.1-14.625 47.518l-.006.005z"/><path d="M88.309 90.18V77.312c0-7.22-5.85-13.07-13.072-13.07-7.216 0-13.07 5.85-13.07 13.07v26.138c0 7.216 5.854 13.071 13.07 13.071 7.222 0 13.072-5.855 13.072-13.071V90.18h0zM69.682 71.73a7.652 7.652 0 015.577-2.25h0a7.885 7.885 0 017.853 7.849v10.43H67.411V77.318a7.72 7.72 0 012.266-5.588h.005zm5.577 39.568a7.837 7.837 0 01-7.838-7.837V92.998h15.691v10.473a7.852 7.852 0 01-7.853 7.827h0z"/></g></g></svg>