<!-- SpeedSize.com --><svg width="150" height="152" xmlns="http://www.w3.org/2000/svg"><g fill="none" fill-rule="evenodd"><g><g><path d="M0 1h150v150H0z"/><g fill="#414040" fill-rule="nonzero" stroke="#414040" stroke-width="2"><path d="M116.66 140.821H33.342c-6.027 0-10.912-4.885-10.912-10.912V12.41c0-6.027 4.885-10.913 10.912-10.913h83.32c6.026 0 10.907 4.886 10.907 10.913v117.498c0 6.027-4.88 10.912-10.907 10.912zM33.342 7.45a5.001 5.001 0 00-5.004 4.998v117.504a5.001 5.001 0 005.004 4.998h83.32a5 5 0 004.998-4.998V12.41a4.997 4.997 0 00-4.998-4.998l-83.32.037z"/><path d="M74.998 49.76c-10.344 0-18.734-8.389-18.74-18.733 0-10.35 8.38-18.74 18.73-18.75 10.344 0 18.739 8.378 18.75 18.723a18.738 18.738 0 01-18.74 18.76zm0-31.52a12.794 12.794 0 00-11.823 7.896 12.785 12.785 0 002.78 13.944A12.787 12.787 0 0087.78 31c-.016-7.05-5.732-12.75-12.782-12.76h0zm0 110.903c-19.88 0-36-16.125-36-36 0-19.886 16.12-36 36-36 19.886 0 36 16.114 36 36a35.995 35.995 0 01-36 35.994h0v.006zm0-66.08A30.064 30.064 0 0047.211 81.62a30.06 30.06 0 006.514 32.775 30.078 30.078 0 0032.775 6.514 30.082 30.082 0 0018.563-27.788c0-16.607-13.463-30.059-30.065-30.059h0zm29.754 87.439a3 3 0 01-3-3v-9.68c0-1.661 1.34-3 3-3 1.655 0 3 1.339 3 3v9.642c0 1.65-1.345 3-3 3v.038zm-59.24 0a3 3 0 01-3-3v-9.68c0-1.661 1.34-3 3-3 1.656 0 3 1.339 3 3v9.642c0 1.65-1.344 3-3 3v.038h0z"/></g></g></g></g></svg>