<!-- SpeedSize.com --><svg width="150" height="152" xmlns="http://www.w3.org/2000/svg"><g fill="none" fill-rule="evenodd"><path d="M0 1h150v150H0z"/><g transform="translate(28 1)" fill="#414040" fill-rule="nonzero" stroke="#414040" stroke-width="2.679"><path d="M82.002.498H12C5.882.498.921 5.454.91 11.571V138.43c.011 6.117 4.972 11.073 11.09 11.073h70.002c6.118 0 11.078-4.956 11.09-11.073V11.57C93.08 5.454 88.12.498 82.001.498zM12 6.498h70.002A5.001 5.001 0 0187 11.502v102.3H7.002V11.56a5 5 0 011.452-3.557A4.998 4.998 0 0112 6.53v-.032zm70.002 136.94H12a5.002 5.002 0 01-5.004-5.058v-18.53H87v18.59a5.021 5.021 0 01-1.452 3.556 5.017 5.017 0 01-3.546 1.474v-.032h0z"/><circle cx="46.998" cy="131.32" r="5.411"/><path d="M37.779 20.379h18c1.66 0 3-1.34 3-3 0-1.656-1.34-3-3-3h-18a3.001 3.001 0 000 6z"/></g></g></svg>