<!-- SpeedSize.com --><svg width="152" height="150" xmlns="http://www.w3.org/2000/svg"><g fill="none" fill-rule="evenodd"><path d="M1 0h150v150H1z"/><path d="M21.11 132.57h109.78c10.858-.054 19.633-8.877 19.606-19.741 0-4.945-3.99-8.968-8.935-9h-1.141V32.418a14.925 14.925 0 00-4.34-10.586 14.952 14.952 0 00-10.559-4.414h-99c-8.25.053-14.903 6.755-14.903 15v71.421h-1.179c-4.944.032-8.94 4.056-8.94 9-.028 10.865 8.747 19.693 19.606 19.73h.006zM17.549 32.418c0-4.945 3.997-8.963 8.947-9h99c4.944.037 8.935 4.055 8.935 9v71.421H17.548V32.418zM93.17 109.86L91.3 114a3.006 3.006 0 01-2.491 1.249H63.1a3.143 3.143 0 01-2.196-.852l-2.074-4.607 34.34.07h0zm-82.73 0h41.87l3.402 7.489a8.854 8.854 0 007.447 3.937h25.698a8.99 8.99 0 007.597-4.328l3.24-7.12h41.872c1.66 0 3 1.34 3 3 .016 7.565-6.096 13.715-13.66 13.741H21.11c-7.565-.021-13.677-6.166-13.661-13.73 0-1.66 1.34-3 3-3l-.01.01z" fill="#414040" fill-rule="nonzero" stroke="#414040" stroke-width="2.679"/></g></svg>