<!-- SpeedSize.com --><svg width="150" height="150" xmlns="http://www.w3.org/2000/svg"><g fill="none" fill-rule="evenodd"><path d="M0 0h150v150H0z"/><path d="M0 0h150v150H0z"/><path d="M134.625 95.357H15.161A15 15 0 010 80.357V49.393c0-8.284 6.716-15 15-15h119.464c8.285 0 15 6.716 15 15v30.964c0 8.222-6.618 14.912-14.839 15zm-119.464-52.5a6.429 6.429 0 00-6.429 6.429v31.071a6.429 6.429 0 006.429 6.429h119.464a6.43 6.43 0 006.43-6.429V49.393a6.433 6.433 0 00-6.43-6.536H15.161z" fill="#414040" fill-rule="nonzero"/><path d="M123.536 76.66H30.375a4.286 4.286 0 110-8.57h93.16a4.286 4.286 0 110 8.57zm-98.518 57.269a4.286 4.286 0 01-4.286-4.286v-22.5a4.286 4.286 0 018.572 0v22.232a4.286 4.286 0 01-4.286 4.554zm96.161 0a4.286 4.286 0 01-4.286-4.286v-22.5a4.286 4.286 0 018.571 0v22.232a4.286 4.286 0 01-4.285 4.554zm-61.286 0a4.286 4.286 0 01-4.286-4.286v-22.5a4.34 4.34 0 018.679 0v22.232a4.286 4.286 0 01-4.393 4.554zm30.643 0a4.286 4.286 0 01-4.286-4.286v-22.5a4.286 4.286 0 018.571 0v22.232a4.286 4.286 0 01-4.285 4.554z" fill="#414040" fill-rule="nonzero"/></g></svg>