<!-- SpeedSize.com --><svg id="Layer_1" data-name="Layer 1" xmlns="http://www.w3.org/2000/svg" viewBox="0 0 150 150"><defs><style>.cls-1{fill:#414040}</style></defs><path class="cls-1" d="M89.26-.08H56.65A12.12 12.12 0 0044.55 12v28h8V12a4.11 4.11 0 014.1-4.1h32.61a4.11 4.11 0 014.1 4.1v28h8V12A12.12 12.12 0 0089.26-.08zm4.1 110v28a4.11 4.11 0 01-4.1 4.1H56.65a4.11 4.11 0 01-4.1-4.1V110h-8v28a12.12 12.12 0 0012.1 12.1h32.61a12.12 12.12 0 0012.1-12.1v-28z"/><path d="M103.82 36.05H42.09A8.09 8.09 0 0034 44.14v61.73a8.09 8.09 0 008.09 8.13h61.73a8.09 8.09 0 008.09-8.09V44.14a8.09 8.09 0 00-8.09-8.09zm4.09 69.82a4.1 4.1 0 01-4.1 4.09H42.09a4.09 4.09 0 01-4.09-4.09V44.14a4.09 4.09 0 014.09-4.09h61.72a4.1 4.1 0 014.1 4.09z" fill="#fff"/><path class="cls-1" d="M103.81 32.05H42.09A12.1 12.1 0 0030 44.14v61.73A12.1 12.1 0 0042.09 118h61.72a12.11 12.11 0 0012.1-12.09V44.14a12.11 12.11 0 00-12.1-12.09zm4.1 73.82a4.1 4.1 0 01-4.1 4.09H42.09a4.09 4.09 0 01-4.09-4.09V44.14a4.09 4.09 0 014.09-4.09h61.72a4.1 4.1 0 014.1 4.09z"/><path class="cls-1" d="M116 84.16a4 4 0 01-4-4V69.84a4 4 0 018 0v10.32a4 4 0 01-4 4z"/></svg>