<!-- SpeedSize.com --><svg width="152" height="150" xmlns="http://www.w3.org/2000/svg"><g fill="none" fill-rule="evenodd"><path d="M1 0h150v150H1z"/><path d="M149.409 8.771a3.054 3.054 0 00-2.54-.696c-.658.113-66.808 11.105-141.808 0a3.066 3.066 0 00-2.497.718 3.131 3.131 0 00-1.066 2.378v100.597a3.106 3.106 0 003.107 3.107 2.7 2.7 0 00.515-.054 506.388 506.388 0 0168.55-5.582v22.479a356.64 356.64 0 00-49.999 4.002 3.105 3.105 0 00-2.62 1.928 3.109 3.109 0 00.526 3.204 3.102 3.102 0 003.09.986c.515-.086 52.694-8.888 101.835 0 .182.02.364.02.546 0v.107a3.127 3.127 0 003.38-2.845 3.118 3.118 0 00-2.839-3.375 277.612 277.612 0 00-47.759-4.055v-22.474c21.172 0 44.55 1.361 66.932 5.625a3.09 3.09 0 002.545-.632 3.114 3.114 0 001.142-2.362V11.17c.02-.91-.36-1.794-1.04-2.4zm-5.121 99.23c-57.868-10.253-120.997-2.169-136.576.097V14.761c64.517 9.059 121.876 2.11 136.575.08v93.16h0z" fill="#414040" fill-rule="nonzero" stroke="#414040" stroke-width="2.679"/></g></svg>