<!-- SpeedSize.com --><svg width="152" height="150" xmlns="http://www.w3.org/2000/svg"><g fill="none" fill-rule="evenodd"><path d="M1 0h150v150H1z"/><path d="M147.143 98.279c8.137-25.661.766-53.716-18.932-72.07A75.344 75.344 0 0076 5C35.875 5 1.568 37.4 1.568 77.621A70.797 70.797 0 004.82 98.29a8.778 8.778 0 00-3 9.107l7.52 28.083A8.724 8.724 0 0020 141.64l8.936-2.378a8.7 8.7 0 009.445 3.487l11.24-3a8.744 8.744 0 006.16-10.677L45.196 89.75c-1.253-4.65-6.037-7.409-10.692-6.171l-11.218 3a8.816 8.816 0 00-3.15 1.58 49.587 49.587 0 01-1.082-7.998 8.56 8.56 0 006-7.329C27.448 48.18 50.302 28.196 76 28.196c25.698 0 48.536 19.999 50.93 44.599a8.54 8.54 0 006 7.328 49.733 49.733 0 01-1.082 8.004 8.715 8.715 0 00-3.166-1.58l-11.223-3a8.728 8.728 0 00-10.629 6.139l-10.59 39.37a8.721 8.721 0 006.16 10.676l11.24 3a8.72 8.72 0 009.439-3.487l8.946 2.378c4.645 1.248 9.429-1.51 10.677-6.16l7.516-28.077a8.752 8.752 0 00-3.08-9.107h.005zm-122.336-6.08l11.229-3a2.962 2.962 0 012.207.288 2.905 2.905 0 011.35 1.768l10.564 39.333a2.904 2.904 0 01-2.003 3.562l-2.818.75-5.641 1.441-2.813.75a2.898 2.898 0 01-3.557-2.004L22.75 95.762a2.924 2.924 0 012.063-3.563h0-.006zm2.1 41.57L18.486 136a2.923 2.923 0 01-3.563-2l-7.468-28.098a2.93 2.93 0 011.87-3.514l.182-.054 8.298-2.223c.81 2.11-.739-2.732 9.102 33.659zM7.461 80.537h5.818a58.512 58.512 0 002.55 14.078l-5.577 1.5A65.796 65.796 0 017.46 80.536h0zM132.7 72.232C130 44.075 104.388 22.368 76 22.368c-28.393 0-54 21.718-56.737 49.87a2.829 2.829 0 01-2.872 2.485h-8.93C9.079 39.768 39.8 10.721 75.979 10.721c36.182 0 66.91 28.999 68.533 63.997h-8.946a2.836 2.836 0 01-2.866-2.486zm11.813 8.304a66.342 66.342 0 01-2.792 15.578l-5.582-1.5a58.75 58.75 0 002.55-14.078h5.823zm-25.822 54.552a2.923 2.923 0 01-3.562 1.998l-2.808-.75-5.608-1.511-2.813-.74a2.91 2.91 0 01-2.09-3.519l10.522-39.262a2.918 2.918 0 012.807-2.16c.257 0 .515.038.761.102l11.229 3a2.919 2.919 0 012.062 3.558l-10.5 39.284zm25.875-29.197l-7.564 28.114a2.902 2.902 0 01-3.552 2.052l-8.421-2.26c9.84-36.413 8.292-31.554 9.139-33.66 8.84 2.368 8.33 2.218 8.512 2.288a2.908 2.908 0 011.838 3.493l.053-.022-.005-.005z" fill="#414040" fill-rule="nonzero" stroke="#414040" stroke-width="2.679"/></g></svg>