<!-- SpeedSize.com --><svg width="152" height="152" xmlns="http://www.w3.org/2000/svg"><g fill="none" fill-rule="evenodd"><path d="M1 1h150v150H1z"/><g transform="translate(1 1)"><path d="M138.14 149.368H11.587A11.223 11.223 0 01.37 138.139V11.587C.375 5.396 5.395.376 11.587.376H138.14a11.225 11.225 0 0111.229 11.218v126.552c0 6.203-5.025 11.228-11.229 11.228h0v-.005zM11.587 6.493a5.1 5.1 0 00-5.1 5.095v126.551c0 2.818 2.287 5.1 5.1 5.1h126.551c2.818 0 5.1-2.282 5.1-5.1V11.587c0-2.812-2.282-5.1-5.1-5.1H11.587v.006z" stroke="#414040" stroke-width="2.679" fill="#414040" fill-rule="nonzero"/><path d="M3.429 36.921h142.36v6.118H3.43v-6.118zm40.13-11.834H19.768a3.058 3.058 0 110-6.117h23.786a3.058 3.058 0 013.058 3.059 3.053 3.053 0 01-3.053 3.058h0z" stroke="#414040" stroke-width="2.679" fill="#414040" fill-rule="nonzero"/><circle cx="74.871" cy="94.039" r="33.021"/><circle fill="#414040" fill-rule="nonzero" cx="126.032" cy="22.029" r="5.357"/><circle fill="#414040" fill-rule="nonzero" cx="111.461" cy="22.029" r="5.357"/></g><path d="M75.871 131.125c-19.923-.016-36.058-16.179-36.053-36.096.01-19.924 16.157-36.07 36.08-36.08 19.918-.006 36.08 16.13 36.102 36.053 0 19.928-16.152 36.08-36.08 36.086l-.054.042.005-.005zm0-66c-16.57 0-30 13.436-30 30 0 16.575 13.43 30 30 30s30-13.425 30-30c0-16.564-13.43-30-30-30h0z" stroke="#414040" stroke-width="2.679" fill="#414040" fill-rule="nonzero"/></g></svg>